<svg id="final__x23_888_60_x25_" xmlns="http://www.w3.org/2000/svg" viewBox="-245.6667 331.3562 30 64" width="30" height="64"><style>.st0{fill:#fff}.st0,.st1{opacity:.6;enable-background:new}.st1{fill:#888}</style><path class="st0" d="M-218.666 395.356c-.57 0-1.137-.243-1.533-.715l-25-29.803a2 2 0 0 1-.005-2.56l25-30.194a2 2 0 0 1 3.08 2.552l-23.937 28.91 23.928 28.53a2 2 0 0 1-1.53 3.283z"/><path class="st1" d="M-216.134 392.07l-23.93-28.528 23.938-28.91a2 2 0 0 0-.265-2.816 1.99 1.99 0 0 0-1.78-.39c.277.07.543.196.777.39a2 2 0 0 1 .264 2.816l-23.936 28.91 23.93 28.53c.71.845.598 2.106-.248 2.816-.237.2-.507.326-.787.398.164.042.33.07.5.07.454 0 .91-.153 1.285-.467a2.004 2.004 0 0 0 .246-2.82z"/></svg>