<svg id="final__x23_888_60_x25_" xmlns="http://www.w3.org/2000/svg" viewBox="-280.0371 331.3562 30.0002 64" width="30" height="64"><style>.st0{fill:#FFF}.st0,.st1{opacity:.6;enable-background:new}.st1{fill:#888}</style><path class="st0" d="M-277.038 395.356c.57 0 1.138-.243 1.533-.715l25-29.804c.62-.74.624-1.817.01-2.56l-25-30.194a2 2 0 0 0-3.082 2.552l23.937 28.91-23.93 28.53a2 2 0 0 0 1.532 3.283z"/><path class="st1" d="M-279.57 392.07l23.93-28.528-23.937-28.91a2 2 0 0 1 .265-2.816 1.987 1.987 0 0 1 1.776-.39c-.276.07-.542.196-.776.39a2 2 0 0 0-.265 2.816l23.937 28.91-23.93 28.53a1.998 1.998 0 0 0 .248 2.816c.236.2.506.326.785.398a2.01 2.01 0 0 1-.5.07 2.003 2.003 0 0 1-1.532-3.287z"/></svg>